<?xml version="1.0" standalone="no"?>
<!DOCTYPE svg PUBLIC "-//W3C//DTD SVG 20010904//EN"
 "http://www.w3.org/TR/2001/REC-SVG-20010904/DTD/svg10.dtd">
<svg version="1.0" xmlns="http://www.w3.org/2000/svg"
 width="561.000000pt" height="320.000000pt" viewBox="0 0 561.000000 320.000000"
 preserveAspectRatio="xMidYMid meet">

<g transform="translate(0.000000,320.000000) scale(0.100000,-0.100000)"
fill="#000000" stroke="none">
<path d="M1251 2929 c-673 -131 -1226 -240 -1228 -243 -7 -7 476 -2489 486
-2499 4 -4 68 4 142 17 151 28 2032 393 2066 401 15 4 23 15 27 38 2 17 2 -23
0 -89 l-4 -122 87 -7 c107 -8 2467 -133 2470 -131 2 1 33 573 69 1270 43 824
63 1271 57 1277 -10 10 -2410 142 -2498 137 l-50 -3 -17 -327 c-35 -654 -55
-982 -57 -922 -1 51 -169 948 -240 1279 -10 50 -22 107 -25 128 -6 32 -10 37
-34 36 -15 0 -578 -108 -1251 -240z m3431 -204 c141 -29 252 -114 300 -233 22
-55 23 -65 20 -322 -1 -146 0 -279 3 -297 14 -80 94 -130 233 -146 l94 -12 -6
-35 c-3 -19 -6 -60 -6 -92 l0 -56 -112 -4 c-141 -4 -181 -21 -216 -91 -22 -42
-25 -70 -38 -304 -21 -387 -37 -460 -119 -550 -84 -95 -217 -139 -391 -131
-51 2 -96 7 -100 10 -3 4 -3 48 1 97 l7 91 97 0 c124 0 186 25 225 92 36 61
44 113 56 373 7 127 18 259 26 295 25 111 76 175 170 215 l39 16 -40 20 c-52
26 -91 64 -115 114 -36 75 -42 141 -30 349 12 219 6 271 -40 334 -39 54 -101
82 -202 90 l-83 7 1 81 c1 115 -1 112 86 107 40 -3 103 -11 140 -18z m-3677
-27 c26 -111 32 -160 21 -163 -6 -2 -42 -11 -81 -20 -93 -22 -149 -55 -180
-109 -41 -70 -41 -111 -1 -323 56 -299 50 -370 -44 -464 l-56 -57 53 -16 c83
-26 150 -95 182 -186 7 -19 36 -153 66 -298 59 -293 76 -339 144 -387 41 -29
47 -30 139 -28 54 1 110 4 127 5 l30 3 16 -85 c9 -47 13 -88 10 -92 -3 -4 -49
-15 -101 -24 -278 -48 -447 42 -523 281 -9 28 -37 156 -62 285 -25 129 -52
254 -61 277 -19 52 -71 99 -126 114 -41 11 -135 8 -204 -6 l-31 -7 -16 84
c-21 104 -21 108 1 108 36 0 161 38 196 59 20 12 46 36 58 54 31 44 28 124
-13 322 -26 125 -33 185 -33 275 -1 106 1 120 27 171 54 112 173 191 341 229
107 24 115 24 121 -2z m622 -264 c145 -32 292 -142 372 -278 45 -75 98 -218
121 -325 118 -543 -73 -884 -565 -1012 -115 -30 -428 -90 -434 -83 -3 3 -76
366 -162 807 -137 706 -154 803 -140 809 23 11 434 89 516 98 85 10 208 3 292
-16z m2513 -236 c114 -28 212 -94 250 -168 45 -89 45 -212 -1 -306 -23 -49
-93 -117 -144 -141 l-35 -17 59 -28 c119 -57 199 -184 187 -299 -17 -166 -126
-294 -296 -348 -127 -40 -307 -46 -490 -15 -77 13 -73 7 -66 97 4 45 8 82 9
83 1 1 34 -4 72 -12 39 -7 126 -17 195 -20 240 -13 356 48 376 198 10 75 -2
115 -51 163 -57 58 -140 84 -293 92 -62 3 -115 9 -117 13 -2 4 -1 39 2 78 l6
72 126 -2 c108 -2 132 1 171 18 65 30 106 81 120 149 22 104 -13 179 -99 218
-67 30 -218 34 -334 9 -48 -10 -89 -16 -90 -13 -2 3 -1 41 1 83 l4 76 46 12
c127 30 288 33 392 8z m-537 -124 c26 -30 47 -58 47 -63 0 -5 -118 -95 -262
-201 -145 -106 -271 -200 -280 -209 -17 -15 -1 -32 243 -256 l261 -240 -63
-57 -62 -57 -201 187 c-399 371 -446 416 -444 423 4 12 692 528 703 527 6 0
31 -24 58 -54z m-806 -561 c-2 -21 -4 -4 -4 37 0 41 2 58 4 38 2 -21 2 -55 0
-75z m1836 -61 c10 -10 20 -35 24 -55 5 -31 1 -40 -25 -67 -41 -40 -83 -41
-123 -1 -31 32 -36 61 -16 101 25 50 99 62 140 22z m-2042 -28 c59 -53 11
-154 -72 -154 -11 0 -34 13 -50 29 -40 40 -39 82 1 123 27 26 36 30 67 25 19
-4 44 -14 54 -23z m196 -101 c-2 -21 -4 -4 -4 37 0 41 2 58 4 38 2 -21 2 -55
0 -75z m-347 -95 c0 -7 -14 -91 -31 -188 -34 -187 -41 -203 -93 -198 -25 3
-41 22 -131 163 -56 88 -100 163 -96 167 3 3 22 8 41 10 34 3 35 2 106 -115
40 -65 74 -121 77 -123 2 -3 15 61 28 140 17 110 27 146 38 149 33 9 61 7 61
-5z m337 -95 c-2 -21 -4 -4 -4 37 0 41 2 58 4 38 2 -21 2 -55 0 -75z m1826
-54 c32 -24 50 -86 41 -137 -20 -113 -106 -189 -226 -200 l-59 -5 3 44 c3 41
5 44 33 47 106 9 144 64 95 137 -58 87 32 178 113 114z m-1960 -31 c79 -42 52
-162 -37 -162 -79 0 -118 93 -61 149 26 27 63 32 98 13z m124 -105 c-2 -21 -4
-4 -4 37 0 41 2 58 4 38 2 -21 2 -55 0 -75z m-10 -190 c-2 -21 -4 -4 -4 37 0
41 2 58 4 38 2 -21 2 -55 0 -75z"/>
<path d="M1285 2244 c-11 -2 -60 -12 -110 -21 -49 -8 -94 -19 -98 -23 -8 -7
220 -1208 232 -1222 6 -7 98 10 211 39 167 42 300 146 356 279 28 67 29 73 28
239 0 143 -4 183 -23 255 -63 241 -137 357 -269 422 -63 31 -73 33 -187 35
-66 1 -129 0 -140 -3z"/>
<path d="M3840 2193 c-61 -9 -115 -25 -122 -36 -4 -7 -8 -38 -8 -71 0 -46 3
-57 14 -53 72 28 289 39 362 18 94 -26 146 -83 152 -168 8 -109 -33 -189 -122
-236 -36 -19 -56 -22 -173 -22 l-133 0 0 -62 c0 -35 1 -63 3 -63 1 0 54 -5
117 -10 138 -11 205 -30 261 -73 54 -41 80 -92 81 -156 0 -122 -60 -202 -181
-237 -87 -25 -288 -20 -443 12 l-28 6 0 -71 c0 -81 -10 -73 123 -91 266 -35
483 15 597 136 67 70 92 129 98 224 6 97 -19 160 -89 225 -49 46 -118 84 -151
85 -31 0 -19 14 37 44 113 59 175 161 175 287 0 203 -168 321 -450 317 -52 0
-106 -2 -120 -5z"/>
<path d="M3205 1864 c-187 -140 -341 -258 -343 -263 -2 -5 120 -122 270 -261
150 -139 291 -271 314 -292 l41 -39 53 48 52 48 -260 240 c-143 131 -259 243
-256 247 3 4 131 100 285 214 l280 206 -47 52 c-26 28 -48 52 -48 52 -1 1
-154 -113 -341 -252z"/>
<path d="M2602 2978 c-7 -7 -12 -19 -12 -27 0 -35 205 -1069 211 -1066 3 3 10
83 13 178 l8 173 -72 369 c-39 203 -74 373 -76 377 -8 12 -59 9 -72 -4z"/>
<path d="M5436 2658 c-3 -13 -32 -551 -65 -1197 -33 -645 -62 -1175 -63 -1177
-2 -2 -510 24 -1128 56 -619 33 -1153 60 -1187 60 l-62 0 -7 -46 c-5 -33 -3
-49 7 -58 10 -10 348 -30 1256 -77 683 -35 1245 -61 1248 -58 3 4 35 568 71
1254 55 1039 64 1249 53 1256 -8 5 -38 9 -66 9 -47 0 -53 -3 -57 -22z"/>
<path d="M1703 396 c-568 -111 -1037 -206 -1043 -212 -12 -12 7 -119 24 -133
8 -7 356 57 1028 187 l1015 197 6 80 c3 44 5 80 4 81 -1 0 -466 -90 -1034
-200z"/>
</g>
</svg>
